<svg class="gamepad" width="159" height="109" viewBox="0 0 166 128" xmlns="http://www.w3.org/2000/svg">
  <defs>
    <path id="shell" class="gp__glyph"
      d="M105.531 2C113.979 2 140.347 3.408 147.771 14.416C150.971 19.152 154.043 28.24 155.323 36.304C156.731 44.752 157.755 50.512 159.035 63.696C160.315 77.008 163.003 93.52 154.427 103.76C150.843 107.984 145.595 109.264 142.267 110.544C140.623 111.05 139.729 109.931 139.214 109.287L139.195 109.264C138.555 108.624 132.795 100.944 129.723 95.312C126.523 89.68 123.707 83.152 118.587 79.312C114.491 76.24 105.659 76.496 100.923 76.368H61.5407C56.8047 76.496 47.9727 76.24 43.8767 79.312C38.7567 83.152 35.9407 89.68 32.7407 95.312C29.6687 100.944 23.9087 108.624 23.2687 109.264L23.2502 109.287C22.7352 109.931 21.8408 111.05 20.1967 110.544C16.8687 109.264 11.6207 107.984 8.03668 103.76C-0.539316 93.52 2.14869 77.008 3.42869 63.696C4.70869 50.512 5.73268 44.752 7.14068 36.304C8.42068 28.24 11.4927 19.152 14.6927 14.416C22.1167 3.408 48.4847 2 56.9327 2H105.531Z">
    </path>
    <path id="dpad" class="gp__glyph"
      d="M11 0H17C18.1046 0 19 0.895431 19 2V8C19 8.55228 19.4477 9 20 9H26C27.1046 9 28 9.89543 28 11V17C28 18.1046 27.1046 19 26 19H20C19.4477 19 19 19.4477 19 20V26C19 27.1046 18.1046 28 17 28H11C9.89543 28 9 27.1046 9 26V20C9 19.4477 8.55229 19 8 19H2C0.895431 19 -4.82823e-08 18.1046 0 17L1.78814e-07 11C2.27096e-07 9.89543 0.895431 9 2 9H8C8.55229 9 9 8.55228 9 8V2C9 0.895431 9.89543 0 11 0Z">
    </path>
    <g id="stick">
      <circle class="gp__glyph gp__glyph--outline" id="outer" cx="8" cy="8" r="10"></circle>
      <circle class="gp__glyph gp__glyph--fill" id="inner" cx="8" cy="8" r="5"></circle>
    </g>
    <path id="button" class="gp__glyph"
      d="M10.943 5.94118C10.943 3.23529 8.69399 1 5.9715 1C3.24901 0.999999 1 3.23529 1 5.94117C1 8.7647 3.24901 11 5.9715 11C8.74847 10.9949 10.943 8.69985 10.943 5.94118Z">
    </path>
    <path id="rearbutton" class="gp__glyph"
      d="M0 11.6794C0.231 10.2934 0.4125 8.11541 0.6765 7.50491C0.9405 6.87791 5.874 3.67691 9.57 2.20841C13.2495 0.756413 16.9785 -0.184087 20.9385 0.0304131C24.8985 0.244913 27.1095 0.657413 27.423 0.739913C27.72 0.822413 28.0005 1.13591 28.05 1.59791C28.0995 2.05991 28.149 4.56791 28.116 4.63391C28.0665 4.71641 21.4995 5.57441 15.0975 7.10891C8.679 8.65991 1.4355 11.7454 0.6435 11.9269C-0.162665 12.128 0.213305 11.7646 0 11.6794Z">
    </path>
  </defs>
  <g fill="#566">
    <use href="#rearbutton" x="20" y="2"></use>
    <use href="#rearbutton" x="-140" y="2" transform="scale(-1, 1)"></use>
    <use href="#shell" y="4"></use>
  </g>
  <g fill="#fb3">
    <use href="#stick" x="30" y="22"></use>
    <use href="#stick" x="96" y="50"></use>
    <use href="#dpad" x="48" y="44"></use>
    <use href="#button" x="124" y="16"></use>
    <use href="#button" x="134" y="26"></use>
    <use href="#button" x="114" y="26"></use>
    <use href="#button" x="124" y="36"></use>
  </g>
</svg>