<svg viewBox="0 0 64 32" xmlns="http://www.w3.org/2000/svg">
  <defs>
    <path id="A"
      d="M 3.0,1.0 L 2.0,1.0 L 2.0,2.0 L 1.0,2.0 L 1.0,7.0 L 3.0,7.0 L 3.0,4.0 L 5.0,4.0 L 5.0,7.0 L 7.0,7.0 L 7.0,2.0 L 6.0,2.0 L 6.0,1.0 L 5.0,1.0 L 5.0,0.0 L 3.0,0.0 L 3.0,1.0 M 3.0,3.0 L 3.0,2.0 L 5.0,2.0 L 5.0,3.0 L 3.0,3.0" />
    <path id="D"
      d="M 5.0,6.0 L 5.0,7.0 L 1.0,7.0 L 1.0,0.0 L 5.0,0.0 L 5.0,1.0 L 6.0,1.0 L 6.0,2.0 L 7.0,2.0 L 7.0,5.0 L 6.0,5.0 L 6.0,6.0 L 5.0,6.0 M 3.0,1.0 L 3.0,6.0 L 4.0,6.0 L 4.0,5.0 L 5.0,5.0 L 5.0,2.0 L 4.0,2.0 L 4.0,1.0 L 3.0,1.0" />
    <path id="E"
      d="M 1.0,7.0 L 1.0,0.0 L 7.0,0.0 L 7.0,1.0 L 3.0,1.0 L 3.0,3.0 L 5.0,3.0 L 5.0,4.0 L 3.0,4.0 L 3.0,6.0 L 7.0,6.0 L 7.0,7.0 L 1.0,7.0" />
    <path id="R"
      d="M 1.0,0.0 L 1.0,7.0 L 3.0,7.0 L 3.0,5.0 L 4.0,5.0 L 4.0,6.0 L 5.0,6.0 L 5.0,7.0 L 7.0,7.0 L 7.0,6.0 L 6.0,6.0 L 6.0,5.0 L 5.0,5.0 L 5.0,4.0 L 6.0,4.0 L 6.0,3.0 L 7.0,3.0 L 7.0,1.0 L 6.0,1.0 L 6.0,0.0 L 1.0,0.0 M 3.0,3.0 L 3.0,1.0 L 5.0,1.0 L 5.0,3.0 L 3.0,3.0" />
    <path id="Y"
      d="M 1.0,3.0 L 2.0,3.0 L 2.0,4.0 L 3.0,4.0 L 3.0,7.0 L 5.0,7.0 L 5.0,4.0 L 6.0,4.0 L 6.0,3.0 L 7.0,3.0 L 7.0,0.0 L 5.0,0.0 L 5.0,3.0 L 3.0,3.0 L 3.0,0.0 L 1.0,0.0 L 1.0,3.0" />
    <path id="period" d="M 3.0,5.0 L 3.0,7.0 L 5.0,7.0 L 5.0,5.0 L 3.0,5.0" />
  </defs>
  <rect width="100%" height="100%" fill="#4242e7" rx="4" />

  <g x="10" fill="#a5a5ff" transform="translate(4, 4)">
    <use href="#R" x="0" />
    <use href="#E" x="8" />
    <use href="#A" x="16" />
    <use href="#D" x="24" />
    <use href="#Y" x="32" />
    <use href="#period" x="40" />
  </g>


</svg>